<?xml version="1.0" encoding="UTF-8" standalone="no"?>
<!-- Created with Inkscape (http://www.inkscape.org/) -->

<svg
   width="37.499828mm"
   height="37.500004mm"
   viewBox="0 0 37.499828 37.500003"
   version="1.1"
   id="svg1"
   xml:space="preserve"
   xmlns:inkscape="http://www.inkscape.org/namespaces/inkscape"
   xmlns:sodipodi="http://sodipodi.sourceforge.net/DTD/sodipodi-0.dtd"
   xmlns="http://www.w3.org/2000/svg"
   xmlns:svg="http://www.w3.org/2000/svg"><sodipodi:namedview
     id="namedview1"
     pagecolor="#ffffff"
     bordercolor="#000000"
     borderopacity="0.25"
     inkscape:showpageshadow="2"
     inkscape:pageopacity="0.0"
     inkscape:pagecheckerboard="0"
     inkscape:deskcolor="#d1d1d1"
     inkscape:document-units="mm"><inkscape:page
       x="5.3196295e-06"
       y="2.9712039e-06"
       width="37.499828"
       height="37.500004"
       id="page4"
       margin="0"
       bleed="0" /></sodipodi:namedview><defs
     id="defs1"><clipPath
       clipPathUnits="userSpaceOnUse"
       id="clipPath48"><path
         d="M 0,595.276 H 841.89 V 0 H 0 Z"
         transform="translate(-483.36311,-333.73621)"
         id="path48" /></clipPath></defs><g
     id="g1"
     inkscape:groupmode="layer"
     inkscape:label="1"
     transform="matrix(0.26458333,0,0,0.26458334,177.29767,-86.196861)"><path
       id="path47"
       d="m 0,0 c -12.737,0 -24.929,3.794 -35.267,10.818 -3.808,-1.361 -8.229,-0.527 -11.278,2.526 -2.113,2.108 -3.167,4.875 -3.167,7.638 -0.002,2.765 1.054,5.534 3.167,7.645 4.221,4.215 11.062,4.218 15.282,-10e-4 2.107,-2.11 3.162,-4.877 3.162,-7.64 -0.001,-0.37 -0.023,-0.737 -0.057,-1.105 8.3,-5.454 18.022,-8.384 28.156,-8.381 13.741,-0.003 26.655,5.346 36.365,15.06 0.57,0.567 1.118,1.148 1.654,1.738 -3.524,15.764 -12.603,24.099 -13.156,24.598 l 8.382,9.389 c 0.581,-0.515 8.252,-7.663 13.331,-21.033 0.014,-0.034 0.028,-0.065 0.041,-0.099 3.148,6.729 4.811,14.122 4.811,21.771 0,8.53 -2.064,16.742 -5.954,24.068 -2.225,3.462 -4.564,6.455 -6.954,9.104 -0.39,0.432 -0.778,0.876 -1.167,1.289 C 35.859,83.617 29.863,70.25 19.333,59.718 10.326,50.71 -0.978,44.774 -13.255,42.428 c -1.731,-3.655 -5.446,-6.19 -9.761,-6.189 -2.985,-10e-4 -5.687,1.21 -7.641,3.162 -1.955,1.956 -3.167,4.66 -3.167,7.646 0.004,5.965 4.841,10.803 10.809,10.805 2.982,-0.002 5.683,-1.213 7.637,-3.167 0.261,-0.261 0.506,-0.537 0.742,-0.82 9.725,2.012 18.67,6.815 25.835,13.983 9.717,9.714 15.067,22.627 15.067,36.365 0,0.802 -0.024,1.601 -0.06,2.396 -13.642,8.655 -25.957,8.128 -26.698,8.093 l -0.712,12.564 c 0.775,0.046 11.239,0.416 24.272,-5.432 0.042,-0.019 0.085,-0.035 0.126,-0.054 -2.532,6.984 -6.583,13.388 -11.991,18.796 -6.031,6.031 -13.299,10.377 -21.23,12.807 -4.046,0.88 -7.839,1.342 -11.42,1.524 -0.558,0.028 -1.124,0.067 -1.671,0.081 8.682,-10.788 13.894,-24.481 13.894,-39.373 0,-12.739 -3.796,-24.929 -10.817,-35.269 1.359,-3.808 0.526,-8.228 -2.524,-11.278 -2.111,-2.112 -4.878,-3.167 -7.641,-3.167 -2.766,0 -5.533,1.055 -7.644,3.167 -4.216,4.22 -4.216,11.062 0,15.282 2.111,2.109 4.878,3.162 7.641,3.162 0.369,0 0.737,-0.019 1.102,-0.056 5.454,8.3 8.384,18.022 8.384,28.157 0,13.738 -5.348,26.653 -15.062,36.366 -0.567,0.567 -1.147,1.116 -1.736,1.653 -15.766,-3.528 -24.101,-12.606 -24.601,-13.156 l -9.387,8.381 c 0.515,0.581 7.662,8.251 21.032,13.334 0.035,0.012 0.066,0.026 0.099,0.039 -6.73,3.147 -14.122,4.811 -21.773,4.811 -8.529,0 -16.74,-2.066 -24.065,-5.957 -3.461,-2.222 -6.453,-4.562 -9.102,-6.949 -0.432,-0.39 -0.877,-0.78 -1.291,-1.171 13.768,-1.491 27.136,-7.486 37.667,-18.017 9.008,-9.008 14.944,-20.31 17.29,-32.588 3.654,-1.732 6.191,-5.447 6.188,-9.759 0.003,-2.987 -1.208,-5.689 -3.161,-7.642 -1.957,-1.956 -4.659,-3.167 -7.646,-3.166 -5.965,0.002 -10.803,4.84 -10.804,10.805 0,2.984 1.211,5.685 3.165,7.639 0.261,0.261 0.536,0.507 0.82,0.741 -2.013,9.726 -6.814,18.672 -13.982,25.838 -9.714,9.715 -22.628,15.064 -36.365,15.064 -0.802,0 -1.601,-0.023 -2.396,-0.06 -8.654,-13.642 -8.129,-25.955 -8.093,-26.696 l -12.564,-0.712 c -0.046,0.775 -0.415,11.238 5.434,24.273 0.018,0.04 0.034,0.081 0.053,0.123 -6.985,-2.531 -13.389,-6.583 -18.799,-11.992 -6.031,-6.032 -10.376,-13.299 -12.806,-21.23 -0.879,-4.047 -1.342,-7.84 -1.523,-11.421 -0.029,-0.559 -0.068,-1.124 -0.082,-1.67 10.789,8.683 24.482,13.895 39.374,13.895 12.74,0 24.928,-3.794 35.269,-10.817 3.808,1.358 8.228,0.527 11.278,-2.525 2.112,-2.11 3.166,-4.877 3.166,-7.64 -10e-4,-2.765 -1.055,-5.533 -3.166,-7.643 -4.22,-4.217 -11.063,-4.217 -15.282,0 -2.109,2.11 -3.163,4.876 -3.163,7.64 0,0.37 0.021,0.737 0.057,1.104 -8.301,5.454 -18.023,8.384 -28.157,8.382 -13.739,0.002 -26.652,-5.347 -36.366,-15.061 -0.567,-0.566 -1.117,-1.148 -1.654,-1.735 3.528,-15.767 12.607,-24.102 13.156,-24.601 l -8.38,-9.389 c -0.581,0.515 -8.253,7.664 -13.332,21.034 -0.014,0.033 -0.028,0.065 -0.04,0.098 -3.149,-6.731 -4.813,-14.123 -4.813,-21.772 0.001,-8.53 2.067,-16.741 5.957,-24.067 2.224,-3.462 4.564,-6.455 6.953,-9.104 0.389,-0.432 0.776,-0.876 1.168,-1.289 1.49,13.769 7.487,27.138 18.017,37.667 9.007,9.008 20.309,14.945 32.588,17.29 1.732,3.654 5.446,6.19 9.76,6.189 2.985,10e-4 5.688,-1.208 7.641,-3.162 1.955,-1.956 3.167,-4.659 3.166,-7.646 -0.002,-5.965 -4.84,-10.803 -10.805,-10.805 -2.984,0.002 -5.685,1.213 -7.639,3.167 -0.263,0.262 -0.507,0.536 -0.741,0.82 -9.726,-2.012 -18.673,-6.815 -25.837,-13.983 -9.716,-9.713 -15.066,-22.627 -15.066,-36.364 0,-0.803 0.023,-1.601 0.059,-2.396 13.642,-8.655 25.957,-8.129 26.697,-8.093 l 0.714,-12.564 c -0.776,-0.047 -11.239,-0.417 -24.273,5.431 -0.042,0.019 -0.083,0.035 -0.125,0.054 2.532,-6.983 6.583,-13.387 11.992,-18.796 6.032,-6.033 13.299,-10.377 21.23,-12.807 4.045,-0.88 7.839,-1.343 11.422,-1.524 0.557,-0.028 1.122,-0.068 1.669,-0.082 -8.683,10.789 -13.895,24.482 -13.895,39.375 0,12.738 3.793,24.929 10.818,35.269 -1.359,3.807 -0.527,8.228 2.525,11.277 2.11,2.112 4.876,3.167 7.639,3.167 2.764,0 5.534,-1.055 7.645,-3.167 4.216,-4.22 4.216,-11.061 0,-15.282 -2.111,-2.109 -4.878,-3.161 -7.642,-3.161 -0.37,0 -0.736,0.021 -1.103,0.056 -5.455,-8.3 -8.385,-18.023 -8.382,-28.157 -0.002,-13.739 5.347,-26.653 15.061,-36.366 0.568,-0.567 1.148,-1.117 1.737,-1.654 15.765,3.527 24.1,12.606 24.599,13.156 l 9.388,-8.381 c -0.514,-0.581 -7.663,-8.252 -21.033,-13.333 -0.034,-0.013 -0.065,-0.027 -0.098,-0.039 6.729,-3.147 14.122,-4.812 21.772,-4.812 8.53,0 16.741,2.067 24.067,5.957 3.46,2.222 6.453,4.562 9.102,6.95 0.431,0.39 0.876,0.779 1.29,1.171 -13.768,1.49 -27.136,7.485 -37.667,18.017 -9.007,9.007 -14.945,20.31 -17.29,32.588 -3.653,1.731 -6.19,5.445 -6.188,9.761 -0.002,2.984 1.208,5.685 3.162,7.64 1.954,1.955 4.659,3.167 7.645,3.167 5.966,-0.004 10.803,-4.84 10.807,-10.807 -0.003,-2.983 -1.214,-5.685 -3.168,-7.639 -0.263,-0.261 -0.537,-0.506 -0.82,-0.741 2.012,-9.725 6.815,-18.672 13.982,-25.836 9.714,-9.717 22.628,-15.066 36.364,-15.066 0.804,0 1.602,0.023 2.398,0.06 8.653,13.642 8.127,25.956 8.091,26.696 l 12.566,0.713 c 0.046,-0.776 0.415,-11.241 -5.435,-24.274 -0.017,-0.04 -0.035,-0.081 -0.053,-0.123 6.984,2.532 13.388,6.581 18.799,11.991 6.031,6.032 10.374,13.3 12.805,21.229 0.88,4.047 1.344,7.843 1.523,11.426 0.029,0.556 0.069,1.121 0.082,1.668 C 28.587,5.212 14.894,0 0,0"
       style="fill:#ef2e33;fill-opacity:1;fill-rule:nonzero;stroke:none"
       transform="matrix(0.62247096,0,0,-0.62247096,-560.38098,429.76159)"
       clip-path="url(#clipPath48)" /></g></svg>
